<svg width="106" height="133" viewBox="0 0 106 133" fill="none" xmlns="http://www.w3.org/2000/svg">
<path d="M0 16C0 7.16345 7.16344 0 16 0H90C98.8366 0 106 7.16344 106 16V117C106 125.837 98.8366 133 90 133H16C7.16344 133 0 125.837 0 117V16Z" fill="#FEF2F4"/>
<path d="M39.908 20.434H41.58V34H39.357V23.113C38.54 23.854 37.514 24.405 36.26 24.766V22.562C36.868 22.41 37.514 22.144 38.198 21.764C38.882 21.346 39.452 20.909 39.908 20.434ZM47.701 20.434H49.373V34H47.15V23.113C46.333 23.854 45.307 24.405 44.053 24.766V22.562C44.661 22.41 45.307 22.144 45.991 21.764C46.675 21.346 47.245 20.909 47.701 20.434ZM57.3369 25.431V28.243H64.8419V25.431H57.3369ZM64.8419 23.588V20.928H57.3369V23.588H64.8419ZM57.2229 30.086C56.9569 32.48 56.2349 34.494 55.0569 36.109L53.5369 34.722C54.7149 33.069 55.3039 30.941 55.3419 28.357V19.028H66.8559V33.924C66.8559 35.178 66.2099 35.805 64.9179 35.805H62.4859L61.9539 33.867C62.7899 33.924 63.5689 33.962 64.2719 33.962C64.6519 33.962 64.8419 33.696 64.8419 33.202V30.086H57.2229Z" fill="#2E2E2E"/>
<path d="M17.2345 53.288H17.7465V59H17.0905V54.088C16.7305 54.456 16.2825 54.712 15.7465 54.872V54.216C16.0025 54.144 16.2745 54.032 16.5465 53.872C16.8185 53.696 17.0425 53.504 17.2345 53.288Z" fill="#2E2E2E"/>
<path d="M29.0816 53.176C29.6096 53.176 30.0416 53.328 30.3856 53.632C30.7216 53.936 30.8976 54.344 30.8976 54.84C30.8976 55.336 30.7056 55.784 30.3376 56.184C30.1376 56.392 29.7456 56.704 29.1536 57.104C28.4256 57.592 28.0096 58.032 27.9056 58.416H30.9056V59H27.0976C27.0976 58.48 27.2816 58.008 27.6656 57.584C27.8896 57.328 28.2976 56.984 28.9056 56.568C29.3536 56.248 29.6496 56.016 29.8016 55.856C30.0896 55.544 30.2416 55.2 30.2416 54.832C30.2416 54.48 30.1376 54.216 29.9296 54.024C29.7216 53.832 29.4256 53.736 29.0576 53.736C28.6656 53.736 28.3616 53.864 28.1536 54.136C27.9296 54.392 27.8096 54.776 27.8016 55.28H27.1456C27.1456 54.64 27.3296 54.128 27.6816 53.752C28.0336 53.368 28.5056 53.176 29.0816 53.176Z" fill="#2E2E2E"/>
<path d="M41.0576 53.176C41.6016 53.176 42.0496 53.312 42.3856 53.592C42.7136 53.872 42.8816 54.248 42.8816 54.728C42.8816 55.368 42.5696 55.8 41.9456 56.008C42.2816 56.112 42.5376 56.272 42.7136 56.496C42.9056 56.72 43.0016 57 43.0016 57.336C43.0016 57.856 42.8176 58.28 42.4576 58.608C42.0896 58.944 41.6096 59.112 41.0176 59.112C40.4736 59.112 40.0336 58.968 39.6896 58.696C39.2816 58.36 39.0576 57.872 39.0096 57.232H39.6736C39.6896 57.68 39.8416 58.024 40.1216 58.256C40.3616 58.448 40.6576 58.552 41.0176 58.552C41.4256 58.552 41.7536 58.432 42.0016 58.2C42.2256 57.976 42.3456 57.696 42.3456 57.36C42.3456 57.016 42.2336 56.752 42.0096 56.56C41.7856 56.368 41.4816 56.28 41.0816 56.28H40.6176V55.768H41.0576C41.4416 55.768 41.7296 55.68 41.9296 55.512C42.1296 55.336 42.2336 55.088 42.2336 54.768C42.2336 54.448 42.1296 54.2 41.9376 54.024C41.7296 53.832 41.4336 53.744 41.0656 53.744C40.6816 53.744 40.3856 53.84 40.1696 54.048C39.9456 54.256 39.8176 54.552 39.7776 54.936H39.1296C39.1776 54.384 39.3856 53.952 39.7376 53.64C40.0736 53.328 40.5136 53.176 41.0576 53.176Z" fill="#2E2E2E"/>
<path d="M53.6736 53.288H54.2896V57.168H55.2176V57.704H54.2896V59H53.6656V57.704H50.7936V57.08L53.6736 53.288ZM53.6416 54.144L51.3456 57.168H53.6656V54.144H53.6416Z" fill="#2E2E2E"/>
<path d="M63.4416 53.288H66.7616V53.872H63.9776L63.7856 55.784H63.8176C63.9776 55.592 64.1856 55.448 64.4336 55.352C64.6576 55.256 64.8976 55.216 65.1616 55.216C65.7056 55.216 66.1456 55.384 66.4816 55.728C66.8176 56.08 66.9936 56.56 66.9936 57.176C66.9936 57.752 66.7856 58.224 66.3776 58.592C65.9936 58.936 65.5136 59.112 64.9536 59.112C64.4496 59.112 64.0176 58.976 63.6656 58.704C63.2656 58.4 63.0496 57.984 63.0096 57.464H63.6576C63.6896 57.824 63.8336 58.104 64.0896 58.296C64.3136 58.464 64.6096 58.552 64.9616 58.552C65.3616 58.552 65.6896 58.424 65.9536 58.168C66.2096 57.912 66.3456 57.584 66.3456 57.184C66.3456 56.728 66.2176 56.376 65.9776 56.128C65.7456 55.872 65.4176 55.752 65.0016 55.752C64.7296 55.752 64.4896 55.808 64.2736 55.928C64.0496 56.04 63.8736 56.216 63.7616 56.44H63.1376L63.4416 53.288Z" fill="#2E2E2E"/>
<path d="M77.0816 53.176C78.1376 53.176 78.7456 53.68 78.9056 54.704H78.2576C78.1296 54.048 77.7376 53.728 77.0736 53.728C76.6256 53.728 76.2736 53.944 76.0176 54.392C75.7616 54.808 75.6416 55.344 75.6416 55.992C75.6416 56.024 75.6416 56.096 75.6496 56.2H75.6816C75.8256 55.904 76.0256 55.672 76.2976 55.512C76.5536 55.344 76.8496 55.264 77.1856 55.264C77.7296 55.264 78.1696 55.44 78.5056 55.792C78.8336 56.144 79.0016 56.592 79.0016 57.152C79.0016 57.712 78.8176 58.184 78.4576 58.552C78.0896 58.92 77.6336 59.112 77.0736 59.112C76.3776 59.112 75.8576 58.848 75.5056 58.336C75.1696 57.848 75.0096 57.168 75.0096 56.296C75.0096 55.384 75.1856 54.64 75.5456 54.072C75.9216 53.472 76.4336 53.176 77.0816 53.176ZM77.0576 55.808C76.6816 55.808 76.3696 55.936 76.1216 56.192C75.8736 56.448 75.7536 56.768 75.7536 57.168C75.7536 57.568 75.8656 57.896 76.1056 58.152C76.3456 58.424 76.6576 58.56 77.0576 58.56C77.4416 58.56 77.7536 58.424 77.9936 58.168C78.2336 57.896 78.3536 57.56 78.3536 57.152C78.3536 56.744 78.2336 56.424 78.0016 56.184C77.7616 55.928 77.4496 55.808 77.0576 55.808Z" fill="#2E2E2E"/>
<path d="M87.0845 53.288H90.8365V53.824L88.7325 59H88.0365L90.1645 53.888H87.0845V53.288Z" fill="#2E2E2E"/>
<path d="M17.0016 67.176C17.5936 67.176 18.0656 67.328 18.4016 67.64C18.7056 67.92 18.8656 68.272 18.8656 68.688C18.8656 68.992 18.7936 69.248 18.6496 69.456C18.4896 69.68 18.2656 69.848 17.9696 69.952V69.968C18.2656 70.04 18.5216 70.208 18.7296 70.464C18.9536 70.736 19.0656 71.056 19.0656 71.424C19.0656 71.928 18.8896 72.336 18.5376 72.64C18.1696 72.952 17.6576 73.112 17.0016 73.112C16.3376 73.112 15.8256 72.952 15.4656 72.64C15.1136 72.336 14.9376 71.928 14.9376 71.424C14.9376 71.056 15.0496 70.736 15.2736 70.464C15.4816 70.208 15.7296 70.04 16.0336 69.968V69.952C15.7296 69.848 15.5056 69.68 15.3536 69.456C15.2096 69.248 15.1376 68.992 15.1376 68.688C15.1376 68.272 15.2896 67.92 15.6016 67.64C15.9376 67.328 16.4016 67.176 17.0016 67.176ZM17.0016 67.712C16.5936 67.712 16.2736 67.816 16.0496 68.024C15.8496 68.2 15.7536 68.432 15.7536 68.712C15.7536 69 15.8416 69.24 16.0176 69.416C16.2256 69.624 16.5536 69.736 17.0016 69.736C17.4416 69.736 17.7696 69.624 17.9856 69.416C18.1616 69.24 18.2496 69 18.2496 68.712C18.2496 68.432 18.1456 68.2 17.9536 68.024C17.7216 67.816 17.4016 67.712 17.0016 67.712ZM17.0016 70.248C16.5376 70.248 16.1856 70.36 15.9376 70.592C15.6976 70.8 15.5856 71.08 15.5856 71.424C15.5856 71.76 15.6976 72.04 15.9376 72.248C16.1776 72.464 16.5376 72.576 17.0016 72.576C17.4656 72.576 17.8176 72.464 18.0736 72.24C18.2976 72.032 18.4176 71.76 18.4176 71.424C18.4176 71.08 18.2976 70.8 18.0736 70.592C17.8176 70.36 17.4576 70.248 17.0016 70.248Z" fill="#2E2E2E"/>
<path d="M28.9376 67.176C29.6256 67.176 30.1456 67.432 30.4976 67.944C30.8336 68.424 31.0016 69.112 31.0016 69.992C31.0016 70.904 30.8176 71.64 30.4656 72.216C30.0816 72.808 29.5696 73.112 28.9296 73.112C27.8656 73.112 27.2576 72.6 27.1056 71.584H27.7536C27.8736 72.232 28.2656 72.56 28.9376 72.56C29.3776 72.56 29.7296 72.336 29.9936 71.896C30.2416 71.472 30.3696 70.936 30.3696 70.296C30.3696 70.256 30.3616 70.184 30.3616 70.088H30.3296C30.1856 70.376 29.9776 70.608 29.7136 70.776C29.4576 70.936 29.1616 71.024 28.8256 71.024C28.2736 71.024 27.8336 70.84 27.4976 70.48C27.1696 70.136 27.0096 69.688 27.0096 69.136C27.0096 68.568 27.1856 68.104 27.5536 67.736C27.9136 67.36 28.3776 67.176 28.9376 67.176ZM28.9536 67.728C28.5616 67.728 28.2496 67.856 28.0096 68.12C27.7696 68.384 27.6576 68.72 27.6576 69.136C27.6576 69.536 27.7696 69.864 28.0096 70.104C28.2416 70.352 28.5536 70.48 28.9536 70.48C29.3216 70.48 29.6336 70.352 29.8896 70.096C30.1296 69.84 30.2576 69.512 30.2576 69.12C30.2576 68.72 30.1376 68.392 29.9056 68.136C29.6656 67.864 29.3456 67.728 28.9536 67.728Z" fill="#2E2E2E"/>
<path d="M38.8361 67.288H39.3481V73H38.6921V68.088C38.3321 68.456 37.8841 68.712 37.3481 68.872V68.216C37.6041 68.144 37.8761 68.032 38.1481 67.872C38.4201 67.696 38.6441 67.504 38.8361 67.288ZM42.607 67.176C43.287 67.176 43.799 67.472 44.151 68.08C44.455 68.592 44.607 69.28 44.607 70.144C44.607 71.008 44.455 71.696 44.151 72.208C43.799 72.808 43.287 73.112 42.607 73.112C41.919 73.112 41.407 72.808 41.063 72.208C40.759 71.696 40.607 71.008 40.607 70.144C40.607 69.28 40.759 68.592 41.063 68.08C41.407 67.472 41.919 67.176 42.607 67.176ZM42.607 67.736C42.095 67.736 41.727 68.008 41.503 68.56C41.343 68.944 41.263 69.472 41.263 70.144C41.263 70.808 41.343 71.336 41.503 71.728C41.727 72.272 42.095 72.552 42.607 72.552C43.119 72.552 43.487 72.272 43.711 71.728C43.871 71.336 43.959 70.808 43.959 70.144C43.959 69.472 43.871 68.944 43.711 68.56C43.487 68.008 43.119 67.736 42.607 67.736Z" fill="#2E2E2E"/>
<path d="M51.6291 67.288H52.1411V73H51.4851V68.088C51.1251 68.456 50.6771 68.712 50.1411 68.872V68.216C50.3971 68.144 50.6691 68.032 50.9411 67.872C51.2131 67.696 51.4371 67.504 51.6291 67.288ZM54.84 67.288H55.352V73H54.696V68.088C54.336 68.456 53.888 68.712 53.352 68.872V68.216C53.608 68.144 53.88 68.032 54.152 67.872C54.424 67.696 54.648 67.504 54.84 67.288Z" fill="#2E2E2E"/>
<path d="M62.8361 67.288H63.3481V73H62.6921V68.088C62.3321 68.456 61.8841 68.712 61.3481 68.872V68.216C61.6041 68.144 61.8761 68.032 62.1481 67.872C62.4201 67.696 62.6441 67.504 62.8361 67.288ZM66.687 67.176C67.215 67.176 67.647 67.328 67.991 67.632C68.327 67.936 68.503 68.344 68.503 68.84C68.503 69.336 68.311 69.784 67.943 70.184C67.743 70.392 67.351 70.704 66.759 71.104C66.031 71.592 65.615 72.032 65.511 72.416H68.511V73H64.703C64.703 72.48 64.887 72.008 65.271 71.584C65.495 71.328 65.903 70.984 66.511 70.568C66.959 70.248 67.255 70.016 67.407 69.856C67.695 69.544 67.847 69.2 67.847 68.832C67.847 68.48 67.743 68.216 67.535 68.024C67.327 67.832 67.031 67.736 66.663 67.736C66.271 67.736 65.967 67.864 65.759 68.136C65.535 68.392 65.415 68.776 65.407 69.28H64.751C64.751 68.64 64.935 68.128 65.287 67.752C65.639 67.368 66.111 67.176 66.687 67.176Z" fill="#2E2E2E"/>
<path d="M74.8361 67.288H75.3481V73H74.6921V68.088C74.3321 68.456 73.8841 68.712 73.3481 68.872V68.216C73.6041 68.144 73.8761 68.032 74.1481 67.872C74.4201 67.696 74.6441 67.504 74.8361 67.288ZM78.663 67.176C79.207 67.176 79.655 67.312 79.991 67.592C80.319 67.872 80.487 68.248 80.487 68.728C80.487 69.368 80.175 69.8 79.551 70.008C79.887 70.112 80.143 70.272 80.319 70.496C80.511 70.72 80.607 71 80.607 71.336C80.607 71.856 80.423 72.28 80.063 72.608C79.695 72.944 79.215 73.112 78.623 73.112C78.079 73.112 77.639 72.968 77.295 72.696C76.887 72.36 76.663 71.872 76.615 71.232H77.279C77.295 71.68 77.447 72.024 77.727 72.256C77.967 72.448 78.263 72.552 78.623 72.552C79.031 72.552 79.359 72.432 79.607 72.2C79.831 71.976 79.951 71.696 79.951 71.36C79.951 71.016 79.839 70.752 79.615 70.56C79.391 70.368 79.087 70.28 78.687 70.28H78.223V69.768H78.663C79.047 69.768 79.335 69.68 79.535 69.512C79.735 69.336 79.839 69.088 79.839 68.768C79.839 68.448 79.735 68.2 79.543 68.024C79.335 67.832 79.039 67.744 78.671 67.744C78.287 67.744 77.991 67.84 77.775 68.048C77.551 68.256 77.423 68.552 77.383 68.936H76.735C76.783 68.384 76.991 67.952 77.343 67.64C77.679 67.328 78.119 67.176 78.663 67.176Z" fill="#2E2E2E"/>
<path d="M86.8361 67.288H87.3481V73H86.6921V68.088C86.3321 68.456 85.8841 68.712 85.3481 68.872V68.216C85.6041 68.144 85.8761 68.032 86.1481 67.872C86.4201 67.696 86.6441 67.504 86.8361 67.288ZM91.279 67.288H91.895V71.168H92.823V71.704H91.895V73H91.271V71.704H88.399V71.08L91.279 67.288ZM91.247 68.144L88.951 71.168H91.271V68.144H91.247Z" fill="#2E2E2E"/>
<path d="M14.8361 81.288H15.3481V87H14.6921V82.088C14.3321 82.456 13.8841 82.712 13.3481 82.872V82.216C13.6041 82.144 13.8761 82.032 14.1481 81.872C14.4201 81.696 14.6441 81.504 14.8361 81.288ZM17.047 81.288H20.367V81.872H17.583L17.391 83.784H17.423C17.583 83.592 17.791 83.448 18.039 83.352C18.263 83.256 18.503 83.216 18.767 83.216C19.311 83.216 19.751 83.384 20.087 83.728C20.423 84.08 20.599 84.56 20.599 85.176C20.599 85.752 20.391 86.224 19.983 86.592C19.599 86.936 19.119 87.112 18.559 87.112C18.055 87.112 17.623 86.976 17.271 86.704C16.871 86.4 16.655 85.984 16.615 85.464H17.263C17.295 85.824 17.439 86.104 17.695 86.296C17.919 86.464 18.215 86.552 18.567 86.552C18.967 86.552 19.295 86.424 19.559 86.168C19.815 85.912 19.951 85.584 19.951 85.184C19.951 84.728 19.823 84.376 19.583 84.128C19.351 83.872 19.023 83.752 18.607 83.752C18.335 83.752 18.095 83.808 17.879 83.928C17.655 84.04 17.479 84.216 17.367 84.44H16.743L17.047 81.288Z" fill="#2E2E2E"/>
<path d="M26.8361 81.288H27.3481V87H26.6921V82.088C26.3321 82.456 25.8841 82.712 25.3481 82.872V82.216C25.6041 82.144 25.8761 82.032 26.1481 81.872C26.4201 81.696 26.6441 81.504 26.8361 81.288ZM30.687 81.176C31.743 81.176 32.351 81.68 32.511 82.704H31.863C31.735 82.048 31.343 81.728 30.679 81.728C30.231 81.728 29.879 81.944 29.623 82.392C29.367 82.808 29.247 83.344 29.247 83.992C29.247 84.024 29.247 84.096 29.255 84.2H29.287C29.431 83.904 29.631 83.672 29.903 83.512C30.159 83.344 30.455 83.264 30.791 83.264C31.335 83.264 31.775 83.44 32.111 83.792C32.439 84.144 32.607 84.592 32.607 85.152C32.607 85.712 32.423 86.184 32.063 86.552C31.695 86.92 31.239 87.112 30.679 87.112C29.983 87.112 29.463 86.848 29.111 86.336C28.775 85.848 28.615 85.168 28.615 84.296C28.615 83.384 28.791 82.64 29.151 82.072C29.527 81.472 30.039 81.176 30.687 81.176ZM30.663 83.808C30.287 83.808 29.975 83.936 29.727 84.192C29.479 84.448 29.359 84.768 29.359 85.168C29.359 85.568 29.471 85.896 29.711 86.152C29.951 86.424 30.263 86.56 30.663 86.56C31.047 86.56 31.359 86.424 31.599 86.168C31.839 85.896 31.959 85.56 31.959 85.152C31.959 84.744 31.839 84.424 31.607 84.184C31.367 83.928 31.055 83.808 30.663 83.808Z" fill="#2E2E2E"/>
<path d="M39.047 81.288H39.559V87H38.903V82.088C38.543 82.456 38.095 82.712 37.559 82.872V82.216C37.815 82.144 38.087 82.032 38.359 81.872C38.631 81.696 38.855 81.504 39.047 81.288ZM40.69 81.288H44.442V81.824L42.338 87H41.642L43.77 81.888H40.69V81.288Z" fill="#2E2E2E"/>
<path d="M50.8361 81.288H51.3481V87H50.6921V82.088C50.3321 82.456 49.8841 82.712 49.3481 82.872V82.216C49.6041 82.144 49.8761 82.032 50.1481 81.872C50.4201 81.696 50.6441 81.504 50.8361 81.288ZM54.607 81.176C55.199 81.176 55.671 81.328 56.007 81.64C56.311 81.92 56.471 82.272 56.471 82.688C56.471 82.992 56.399 83.248 56.255 83.456C56.095 83.68 55.871 83.848 55.575 83.952V83.968C55.871 84.04 56.127 84.208 56.335 84.464C56.559 84.736 56.671 85.056 56.671 85.424C56.671 85.928 56.495 86.336 56.143 86.64C55.775 86.952 55.263 87.112 54.607 87.112C53.943 87.112 53.431 86.952 53.071 86.64C52.719 86.336 52.543 85.928 52.543 85.424C52.543 85.056 52.655 84.736 52.879 84.464C53.087 84.208 53.335 84.04 53.639 83.968V83.952C53.335 83.848 53.111 83.68 52.959 83.456C52.815 83.248 52.743 82.992 52.743 82.688C52.743 82.272 52.895 81.92 53.207 81.64C53.543 81.328 54.007 81.176 54.607 81.176ZM54.607 81.712C54.199 81.712 53.879 81.816 53.655 82.024C53.455 82.2 53.359 82.432 53.359 82.712C53.359 83 53.447 83.24 53.623 83.416C53.831 83.624 54.159 83.736 54.607 83.736C55.047 83.736 55.375 83.624 55.591 83.416C55.767 83.24 55.855 83 55.855 82.712C55.855 82.432 55.751 82.2 55.559 82.024C55.327 81.816 55.007 81.712 54.607 81.712ZM54.607 84.248C54.143 84.248 53.791 84.36 53.543 84.592C53.303 84.8 53.191 85.08 53.191 85.424C53.191 85.76 53.303 86.04 53.543 86.248C53.783 86.464 54.143 86.576 54.607 86.576C55.071 86.576 55.423 86.464 55.679 86.24C55.903 86.032 56.023 85.76 56.023 85.424C56.023 85.08 55.903 84.8 55.679 84.592C55.423 84.36 55.063 84.248 54.607 84.248Z" fill="#2E2E2E"/>
<path d="M62.8361 81.288H63.3481V87H62.6921V82.088C62.3321 82.456 61.8841 82.712 61.3481 82.872V82.216C61.6041 82.144 61.8761 82.032 62.1481 81.872C62.4201 81.696 62.6441 81.504 62.8361 81.288ZM66.543 81.176C67.231 81.176 67.751 81.432 68.103 81.944C68.439 82.424 68.607 83.112 68.607 83.992C68.607 84.904 68.423 85.64 68.071 86.216C67.687 86.808 67.175 87.112 66.535 87.112C65.471 87.112 64.863 86.6 64.711 85.584H65.359C65.479 86.232 65.871 86.56 66.543 86.56C66.983 86.56 67.335 86.336 67.599 85.896C67.847 85.472 67.975 84.936 67.975 84.296C67.975 84.256 67.967 84.184 67.967 84.088H67.935C67.791 84.376 67.583 84.608 67.319 84.776C67.063 84.936 66.767 85.024 66.431 85.024C65.879 85.024 65.439 84.84 65.103 84.48C64.775 84.136 64.615 83.688 64.615 83.136C64.615 82.568 64.791 82.104 65.159 81.736C65.519 81.36 65.983 81.176 66.543 81.176ZM66.559 81.728C66.167 81.728 65.855 81.856 65.615 82.12C65.375 82.384 65.263 82.72 65.263 83.136C65.263 83.536 65.375 83.864 65.615 84.104C65.847 84.352 66.159 84.48 66.559 84.48C66.927 84.48 67.239 84.352 67.495 84.096C67.735 83.84 67.863 83.512 67.863 83.12C67.863 82.72 67.743 82.392 67.511 82.136C67.271 81.864 66.951 81.728 66.559 81.728Z" fill="#2E2E2E"/>
<path d="M74.6831 81.176C75.2111 81.176 75.6431 81.328 75.9871 81.632C76.3231 81.936 76.4991 82.344 76.4991 82.84C76.4991 83.336 76.3071 83.784 75.9391 84.184C75.7391 84.392 75.3471 84.704 74.7551 85.104C74.0271 85.592 73.6111 86.032 73.5071 86.416H76.5071V87H72.6991C72.6991 86.48 72.8831 86.008 73.2671 85.584C73.4911 85.328 73.8991 84.984 74.5071 84.568C74.9551 84.248 75.2511 84.016 75.4031 83.856C75.6911 83.544 75.8431 83.2 75.8431 82.832C75.8431 82.48 75.7391 82.216 75.5311 82.024C75.3231 81.832 75.0271 81.736 74.6591 81.736C74.2671 81.736 73.9631 81.864 73.7551 82.136C73.5311 82.392 73.4111 82.776 73.4031 83.28H72.7471C72.7471 82.64 72.9311 82.128 73.2831 81.752C73.6351 81.368 74.1071 81.176 74.6831 81.176ZM79.4 81.176C80.08 81.176 80.592 81.472 80.944 82.08C81.248 82.592 81.4 83.28 81.4 84.144C81.4 85.008 81.248 85.696 80.944 86.208C80.592 86.808 80.08 87.112 79.4 87.112C78.712 87.112 78.2 86.808 77.856 86.208C77.552 85.696 77.4 85.008 77.4 84.144C77.4 83.28 77.552 82.592 77.856 82.08C78.2 81.472 78.712 81.176 79.4 81.176ZM79.4 81.736C78.888 81.736 78.52 82.008 78.296 82.56C78.136 82.944 78.056 83.472 78.056 84.144C78.056 84.808 78.136 85.336 78.296 85.728C78.52 86.272 78.888 86.552 79.4 86.552C79.912 86.552 80.28 86.272 80.504 85.728C80.664 85.336 80.752 84.808 80.752 84.144C80.752 83.472 80.664 82.944 80.504 82.56C80.28 82.008 79.912 81.736 79.4 81.736Z" fill="#2E2E2E"/>
<path d="M87.4761 81.176C88.0041 81.176 88.4361 81.328 88.7801 81.632C89.1161 81.936 89.2921 82.344 89.2921 82.84C89.2921 83.336 89.1001 83.784 88.7321 84.184C88.5321 84.392 88.1401 84.704 87.5481 85.104C86.8201 85.592 86.4041 86.032 86.3001 86.416H89.3001V87H85.4921C85.4921 86.48 85.6761 86.008 86.0601 85.584C86.2841 85.328 86.6921 84.984 87.3001 84.568C87.7481 84.248 88.0441 84.016 88.1961 83.856C88.4841 83.544 88.6361 83.2 88.6361 82.832C88.6361 82.48 88.5321 82.216 88.3241 82.024C88.1161 81.832 87.8201 81.736 87.4521 81.736C87.0601 81.736 86.7561 81.864 86.5481 82.136C86.3241 82.392 86.2041 82.776 86.1961 83.28H85.5401C85.5401 82.64 85.7241 82.128 86.0761 81.752C86.4281 81.368 86.9001 81.176 87.4761 81.176ZM91.633 81.288H92.145V87H91.489V82.088C91.129 82.456 90.681 82.712 90.145 82.872V82.216C90.401 82.144 90.673 82.032 90.945 81.872C91.217 81.696 91.441 81.504 91.633 81.288Z" fill="#2E2E2E"/>
<path d="M14.6831 95.176C15.2111 95.176 15.6431 95.328 15.9871 95.632C16.3231 95.936 16.4991 96.344 16.4991 96.84C16.4991 97.336 16.3071 97.784 15.9391 98.184C15.7391 98.392 15.3471 98.704 14.7551 99.104C14.0271 99.592 13.6111 100.032 13.5071 100.416H16.5071V101H12.6991C12.6991 100.48 12.8831 100.008 13.2671 99.584C13.4911 99.328 13.8991 98.984 14.5071 98.568C14.9551 98.248 15.2511 98.016 15.4031 97.856C15.6911 97.544 15.8431 97.2 15.8431 96.832C15.8431 96.48 15.7391 96.216 15.5311 96.024C15.3231 95.832 15.0271 95.736 14.6591 95.736C14.2671 95.736 13.9631 95.864 13.7551 96.136C13.5311 96.392 13.4111 96.776 13.4031 97.28H12.7471C12.7471 96.64 12.9311 96.128 13.2831 95.752C13.6351 95.368 14.1071 95.176 14.6831 95.176ZM19.48 95.176C20.008 95.176 20.44 95.328 20.784 95.632C21.12 95.936 21.296 96.344 21.296 96.84C21.296 97.336 21.104 97.784 20.736 98.184C20.536 98.392 20.144 98.704 19.552 99.104C18.824 99.592 18.408 100.032 18.304 100.416H21.304V101H17.496C17.496 100.48 17.68 100.008 18.064 99.584C18.288 99.328 18.696 98.984 19.304 98.568C19.752 98.248 20.048 98.016 20.2 97.856C20.488 97.544 20.64 97.2 20.64 96.832C20.64 96.48 20.536 96.216 20.328 96.024C20.12 95.832 19.824 95.736 19.456 95.736C19.064 95.736 18.76 95.864 18.552 96.136C18.328 96.392 18.208 96.776 18.2 97.28H17.544C17.544 96.64 17.728 96.128 18.08 95.752C18.432 95.368 18.904 95.176 19.48 95.176Z" fill="#2E2E2E"/>
<path d="M26.6831 95.176C27.2111 95.176 27.6431 95.328 27.9871 95.632C28.3231 95.936 28.4991 96.344 28.4991 96.84C28.4991 97.336 28.3071 97.784 27.9391 98.184C27.7391 98.392 27.3471 98.704 26.7551 99.104C26.0271 99.592 25.6111 100.032 25.5071 100.416H28.5071V101H24.6991C24.6991 100.48 24.8831 100.008 25.2671 99.584C25.4911 99.328 25.8991 98.984 26.5071 98.568C26.9551 98.248 27.2511 98.016 27.4031 97.856C27.6911 97.544 27.8431 97.2 27.8431 96.832C27.8431 96.48 27.7391 96.216 27.5311 96.024C27.3231 95.832 27.0271 95.736 26.6591 95.736C26.2671 95.736 25.9631 95.864 25.7551 96.136C25.5311 96.392 25.4111 96.776 25.4031 97.28H24.7471C24.7471 96.64 24.9311 96.128 25.2831 95.752C25.6351 95.368 26.1071 95.176 26.6831 95.176ZM31.456 95.176C32 95.176 32.448 95.312 32.784 95.592C33.112 95.872 33.28 96.248 33.28 96.728C33.28 97.368 32.968 97.8 32.344 98.008C32.68 98.112 32.936 98.272 33.112 98.496C33.304 98.72 33.4 99 33.4 99.336C33.4 99.856 33.216 100.28 32.856 100.608C32.488 100.944 32.008 101.112 31.416 101.112C30.872 101.112 30.432 100.968 30.088 100.696C29.68 100.36 29.456 99.872 29.408 99.232H30.072C30.088 99.68 30.24 100.024 30.52 100.256C30.76 100.448 31.056 100.552 31.416 100.552C31.824 100.552 32.152 100.432 32.4 100.2C32.624 99.976 32.744 99.696 32.744 99.36C32.744 99.016 32.632 98.752 32.408 98.56C32.184 98.368 31.88 98.28 31.48 98.28H31.016V97.768H31.456C31.84 97.768 32.128 97.68 32.328 97.512C32.528 97.336 32.632 97.088 32.632 96.768C32.632 96.448 32.528 96.2 32.336 96.024C32.128 95.832 31.832 95.744 31.464 95.744C31.08 95.744 30.784 95.84 30.568 96.048C30.344 96.256 30.216 96.552 30.176 96.936H29.528C29.576 96.384 29.784 95.952 30.136 95.64C30.472 95.328 30.912 95.176 31.456 95.176Z" fill="#2E2E2E"/>
<path d="M38.6831 95.176C39.2111 95.176 39.6431 95.328 39.9871 95.632C40.3231 95.936 40.4991 96.344 40.4991 96.84C40.4991 97.336 40.3071 97.784 39.9391 98.184C39.7391 98.392 39.3471 98.704 38.7551 99.104C38.0271 99.592 37.6111 100.032 37.5071 100.416H40.5071V101H36.6991C36.6991 100.48 36.8831 100.008 37.2671 99.584C37.4911 99.328 37.8991 98.984 38.5071 98.568C38.9551 98.248 39.2511 98.016 39.4031 97.856C39.6911 97.544 39.8431 97.2 39.8431 96.832C39.8431 96.48 39.7391 96.216 39.5311 96.024C39.3231 95.832 39.0271 95.736 38.6591 95.736C38.2671 95.736 37.9631 95.864 37.7551 96.136C37.5311 96.392 37.4111 96.776 37.4031 97.28H36.7471C36.7471 96.64 36.9311 96.128 37.2831 95.752C37.6351 95.368 38.1071 95.176 38.6831 95.176ZM44.072 95.288H44.688V99.168H45.616V99.704H44.688V101H44.064V99.704H41.192V99.08L44.072 95.288ZM44.04 96.144L41.744 99.168H44.064V96.144H44.04Z" fill="#2E2E2E"/>
<path d="M50.6831 95.176C51.2111 95.176 51.6431 95.328 51.9871 95.632C52.3231 95.936 52.4991 96.344 52.4991 96.84C52.4991 97.336 52.3071 97.784 51.9391 98.184C51.7391 98.392 51.3471 98.704 50.7551 99.104C50.0271 99.592 49.6111 100.032 49.5071 100.416H52.5071V101H48.6991C48.6991 100.48 48.8831 100.008 49.2671 99.584C49.4911 99.328 49.8991 98.984 50.5071 98.568C50.9551 98.248 51.2511 98.016 51.4031 97.856C51.6911 97.544 51.8431 97.2 51.8431 96.832C51.8431 96.48 51.7391 96.216 51.5311 96.024C51.3231 95.832 51.0271 95.736 50.6591 95.736C50.2671 95.736 49.9631 95.864 49.7551 96.136C49.5311 96.392 49.4111 96.776 49.4031 97.28H48.7471C48.7471 96.64 48.9311 96.128 49.2831 95.752C49.6351 95.368 50.1071 95.176 50.6831 95.176ZM53.84 95.288H57.16V95.872H54.376L54.184 97.784H54.216C54.376 97.592 54.584 97.448 54.832 97.352C55.056 97.256 55.296 97.216 55.56 97.216C56.104 97.216 56.544 97.384 56.88 97.728C57.216 98.08 57.392 98.56 57.392 99.176C57.392 99.752 57.184 100.224 56.776 100.592C56.392 100.936 55.912 101.112 55.352 101.112C54.848 101.112 54.416 100.976 54.064 100.704C53.664 100.4 53.448 99.984 53.408 99.464H54.056C54.088 99.824 54.232 100.104 54.488 100.296C54.712 100.464 55.008 100.552 55.36 100.552C55.76 100.552 56.088 100.424 56.352 100.168C56.608 99.912 56.744 99.584 56.744 99.184C56.744 98.728 56.616 98.376 56.376 98.128C56.144 97.872 55.816 97.752 55.4 97.752C55.128 97.752 54.888 97.808 54.672 97.928C54.448 98.04 54.272 98.216 54.16 98.44H53.536L53.84 95.288Z" fill="#2E2E2E"/>
<path d="M62.6831 95.176C63.2111 95.176 63.6431 95.328 63.9871 95.632C64.3231 95.936 64.4991 96.344 64.4991 96.84C64.4991 97.336 64.3071 97.784 63.9391 98.184C63.7391 98.392 63.3471 98.704 62.7551 99.104C62.0271 99.592 61.6111 100.032 61.5071 100.416H64.5071V101H60.6991C60.6991 100.48 60.8831 100.008 61.2671 99.584C61.4911 99.328 61.8991 98.984 62.5071 98.568C62.9551 98.248 63.2511 98.016 63.4031 97.856C63.6911 97.544 63.8431 97.2 63.8431 96.832C63.8431 96.48 63.7391 96.216 63.5311 96.024C63.3231 95.832 63.0271 95.736 62.6591 95.736C62.2671 95.736 61.9631 95.864 61.7551 96.136C61.5311 96.392 61.4111 96.776 61.4031 97.28H60.7471C60.7471 96.64 60.9311 96.128 61.2831 95.752C61.6351 95.368 62.1071 95.176 62.6831 95.176ZM67.48 95.176C68.536 95.176 69.144 95.68 69.304 96.704H68.656C68.528 96.048 68.136 95.728 67.472 95.728C67.024 95.728 66.672 95.944 66.416 96.392C66.16 96.808 66.04 97.344 66.04 97.992C66.04 98.024 66.04 98.096 66.048 98.2H66.08C66.224 97.904 66.424 97.672 66.696 97.512C66.952 97.344 67.248 97.264 67.584 97.264C68.128 97.264 68.568 97.44 68.904 97.792C69.232 98.144 69.4 98.592 69.4 99.152C69.4 99.712 69.216 100.184 68.856 100.552C68.488 100.92 68.032 101.112 67.472 101.112C66.776 101.112 66.256 100.848 65.904 100.336C65.568 99.848 65.408 99.168 65.408 98.296C65.408 97.384 65.584 96.64 65.944 96.072C66.32 95.472 66.832 95.176 67.48 95.176ZM67.456 97.808C67.08 97.808 66.768 97.936 66.52 98.192C66.272 98.448 66.152 98.768 66.152 99.168C66.152 99.568 66.264 99.896 66.504 100.152C66.744 100.424 67.056 100.56 67.456 100.56C67.84 100.56 68.152 100.424 68.392 100.168C68.632 99.896 68.752 99.56 68.752 99.152C68.752 98.744 68.632 98.424 68.4 98.184C68.16 97.928 67.848 97.808 67.456 97.808Z" fill="#2E2E2E"/>
<path d="M74.8941 95.176C75.4221 95.176 75.8541 95.328 76.1981 95.632C76.5341 95.936 76.7101 96.344 76.7101 96.84C76.7101 97.336 76.5181 97.784 76.1501 98.184C75.9501 98.392 75.5581 98.704 74.9661 99.104C74.2381 99.592 73.8221 100.032 73.7181 100.416H76.7181V101H72.9101C72.9101 100.48 73.0941 100.008 73.4781 99.584C73.7021 99.328 74.1101 98.984 74.7181 98.568C75.1661 98.248 75.4621 98.016 75.6141 97.856C75.9021 97.544 76.0541 97.2 76.0541 96.832C76.0541 96.48 75.9501 96.216 75.7421 96.024C75.5341 95.832 75.2381 95.736 74.8701 95.736C74.4781 95.736 74.1741 95.864 73.9661 96.136C73.7421 96.392 73.6221 96.776 73.6141 97.28H72.9581C72.9581 96.64 73.1421 96.128 73.4941 95.752C73.8461 95.368 74.3181 95.176 74.8941 95.176ZM77.4829 95.288H81.2349V95.824L79.1309 101H78.4349L80.5629 95.888H77.4829V95.288Z" fill="#2E2E2E"/>
<path d="M86.6831 95.176C87.2111 95.176 87.6431 95.328 87.9871 95.632C88.3231 95.936 88.4991 96.344 88.4991 96.84C88.4991 97.336 88.3071 97.784 87.9391 98.184C87.7391 98.392 87.3471 98.704 86.7551 99.104C86.0271 99.592 85.6111 100.032 85.5071 100.416H88.5071V101H84.6991C84.6991 100.48 84.8831 100.008 85.2671 99.584C85.4911 99.328 85.8991 98.984 86.5071 98.568C86.9551 98.248 87.2511 98.016 87.4031 97.856C87.6911 97.544 87.8431 97.2 87.8431 96.832C87.8431 96.48 87.7391 96.216 87.5311 96.024C87.3231 95.832 87.0271 95.736 86.6591 95.736C86.2671 95.736 85.9631 95.864 85.7551 96.136C85.5311 96.392 85.4111 96.776 85.4031 97.28H84.7471C84.7471 96.64 84.9311 96.128 85.2831 95.752C85.6351 95.368 86.1071 95.176 86.6831 95.176ZM91.4 95.176C91.992 95.176 92.464 95.328 92.8 95.64C93.104 95.92 93.264 96.272 93.264 96.688C93.264 96.992 93.192 97.248 93.048 97.456C92.888 97.68 92.664 97.848 92.368 97.952V97.968C92.664 98.04 92.92 98.208 93.128 98.464C93.352 98.736 93.464 99.056 93.464 99.424C93.464 99.928 93.288 100.336 92.936 100.64C92.568 100.952 92.056 101.112 91.4 101.112C90.736 101.112 90.224 100.952 89.864 100.64C89.512 100.336 89.336 99.928 89.336 99.424C89.336 99.056 89.448 98.736 89.672 98.464C89.88 98.208 90.128 98.04 90.432 97.968V97.952C90.128 97.848 89.904 97.68 89.752 97.456C89.608 97.248 89.536 96.992 89.536 96.688C89.536 96.272 89.688 95.92 90 95.64C90.336 95.328 90.8 95.176 91.4 95.176ZM91.4 95.712C90.992 95.712 90.672 95.816 90.448 96.024C90.248 96.2 90.152 96.432 90.152 96.712C90.152 97 90.24 97.24 90.416 97.416C90.624 97.624 90.952 97.736 91.4 97.736C91.84 97.736 92.168 97.624 92.384 97.416C92.56 97.24 92.648 97 92.648 96.712C92.648 96.432 92.544 96.2 92.352 96.024C92.12 95.816 91.8 95.712 91.4 95.712ZM91.4 98.248C90.936 98.248 90.584 98.36 90.336 98.592C90.096 98.8 89.984 99.08 89.984 99.424C89.984 99.76 90.096 100.04 90.336 100.248C90.576 100.464 90.936 100.576 91.4 100.576C91.864 100.576 92.216 100.464 92.472 100.24C92.696 100.032 92.816 99.76 92.816 99.424C92.816 99.08 92.696 98.8 92.472 98.592C92.216 98.36 91.856 98.248 91.4 98.248Z" fill="#2E2E2E"/>
<path d="M14.6831 109.176C15.2111 109.176 15.6431 109.328 15.9871 109.632C16.3231 109.936 16.4991 110.344 16.4991 110.84C16.4991 111.336 16.3071 111.784 15.9391 112.184C15.7391 112.392 15.3471 112.704 14.7551 113.104C14.0271 113.592 13.6111 114.032 13.5071 114.416H16.5071V115H12.6991C12.6991 114.48 12.8831 114.008 13.2671 113.584C13.4911 113.328 13.8991 112.984 14.5071 112.568C14.9551 112.248 15.2511 112.016 15.4031 111.856C15.6911 111.544 15.8431 111.2 15.8431 110.832C15.8431 110.48 15.7391 110.216 15.5311 110.024C15.3231 109.832 15.0271 109.736 14.6591 109.736C14.2671 109.736 13.9631 109.864 13.7551 110.136C13.5311 110.392 13.4111 110.776 13.4031 111.28H12.7471C12.7471 110.64 12.9311 110.128 13.2831 109.752C13.6351 109.368 14.1071 109.176 14.6831 109.176ZM19.336 109.176C20.024 109.176 20.544 109.432 20.896 109.944C21.232 110.424 21.4 111.112 21.4 111.992C21.4 112.904 21.216 113.64 20.864 114.216C20.48 114.808 19.968 115.112 19.328 115.112C18.264 115.112 17.656 114.6 17.504 113.584H18.152C18.272 114.232 18.664 114.56 19.336 114.56C19.776 114.56 20.128 114.336 20.392 113.896C20.64 113.472 20.768 112.936 20.768 112.296C20.768 112.256 20.76 112.184 20.76 112.088H20.728C20.584 112.376 20.376 112.608 20.112 112.776C19.856 112.936 19.56 113.024 19.224 113.024C18.672 113.024 18.232 112.84 17.896 112.48C17.568 112.136 17.408 111.688 17.408 111.136C17.408 110.568 17.584 110.104 17.952 109.736C18.312 109.36 18.776 109.176 19.336 109.176ZM19.352 109.728C18.96 109.728 18.648 109.856 18.408 110.12C18.168 110.384 18.056 110.72 18.056 111.136C18.056 111.536 18.168 111.864 18.408 112.104C18.64 112.352 18.952 112.48 19.352 112.48C19.72 112.48 20.032 112.352 20.288 112.096C20.528 111.84 20.656 111.512 20.656 111.12C20.656 110.72 20.536 110.392 20.304 110.136C20.064 109.864 19.744 109.728 19.352 109.728Z" fill="#2E2E2E"/>
<path d="M26.6591 109.176C27.2031 109.176 27.6511 109.312 27.9871 109.592C28.3151 109.872 28.4831 110.248 28.4831 110.728C28.4831 111.368 28.1711 111.8 27.5471 112.008C27.8831 112.112 28.1391 112.272 28.3151 112.496C28.5071 112.72 28.6031 113 28.6031 113.336C28.6031 113.856 28.4191 114.28 28.0591 114.608C27.6911 114.944 27.2111 115.112 26.6191 115.112C26.0751 115.112 25.6351 114.968 25.2911 114.696C24.8831 114.36 24.6591 113.872 24.6111 113.232H25.2751C25.2911 113.68 25.4431 114.024 25.7231 114.256C25.9631 114.448 26.2591 114.552 26.6191 114.552C27.0271 114.552 27.3551 114.432 27.6031 114.2C27.8271 113.976 27.9471 113.696 27.9471 113.36C27.9471 113.016 27.8351 112.752 27.6111 112.56C27.3871 112.368 27.0831 112.28 26.6831 112.28H26.2191V111.768H26.6591C27.0431 111.768 27.3311 111.68 27.5311 111.512C27.7311 111.336 27.8351 111.088 27.8351 110.768C27.8351 110.448 27.7311 110.2 27.5391 110.024C27.3311 109.832 27.0351 109.744 26.6671 109.744C26.2831 109.744 25.9871 109.84 25.7711 110.048C25.5471 110.256 25.4191 110.552 25.3791 110.936H24.7311C24.7791 110.384 24.9871 109.952 25.3391 109.64C25.6751 109.328 26.1151 109.176 26.6591 109.176ZM31.4 109.176C32.08 109.176 32.592 109.472 32.944 110.08C33.248 110.592 33.4 111.28 33.4 112.144C33.4 113.008 33.248 113.696 32.944 114.208C32.592 114.808 32.08 115.112 31.4 115.112C30.712 115.112 30.2 114.808 29.856 114.208C29.552 113.696 29.4 113.008 29.4 112.144C29.4 111.28 29.552 110.592 29.856 110.08C30.2 109.472 30.712 109.176 31.4 109.176ZM31.4 109.736C30.888 109.736 30.52 110.008 30.296 110.56C30.136 110.944 30.056 111.472 30.056 112.144C30.056 112.808 30.136 113.336 30.296 113.728C30.52 114.272 30.888 114.552 31.4 114.552C31.912 114.552 32.28 114.272 32.504 113.728C32.664 113.336 32.752 112.808 32.752 112.144C32.752 111.472 32.664 110.944 32.504 110.56C32.28 110.008 31.912 109.736 31.4 109.736Z" fill="#2E2E2E"/>
<path d="M39.4521 109.176C39.9961 109.176 40.4441 109.312 40.7801 109.592C41.1081 109.872 41.2761 110.248 41.2761 110.728C41.2761 111.368 40.9641 111.8 40.3401 112.008C40.6761 112.112 40.9321 112.272 41.1081 112.496C41.3001 112.72 41.3961 113 41.3961 113.336C41.3961 113.856 41.2121 114.28 40.8521 114.608C40.4841 114.944 40.0041 115.112 39.4121 115.112C38.8681 115.112 38.4281 114.968 38.0841 114.696C37.6761 114.36 37.4521 113.872 37.4041 113.232H38.0681C38.0841 113.68 38.2361 114.024 38.5161 114.256C38.7561 114.448 39.0521 114.552 39.4121 114.552C39.8201 114.552 40.1481 114.432 40.3961 114.2C40.6201 113.976 40.7401 113.696 40.7401 113.36C40.7401 113.016 40.6281 112.752 40.4041 112.56C40.1801 112.368 39.8761 112.28 39.4761 112.28H39.0121V111.768H39.4521C39.8361 111.768 40.1241 111.68 40.3241 111.512C40.5241 111.336 40.6281 111.088 40.6281 110.768C40.6281 110.448 40.5241 110.2 40.3321 110.024C40.1241 109.832 39.8281 109.744 39.4601 109.744C39.0761 109.744 38.7801 109.84 38.5641 110.048C38.3401 110.256 38.2121 110.552 38.1721 110.936H37.5241C37.5721 110.384 37.7801 109.952 38.1321 109.64C38.4681 109.328 38.9081 109.176 39.4521 109.176ZM43.633 109.288H44.145V115H43.489V110.088C43.129 110.456 42.681 110.712 42.145 110.872V110.216C42.401 110.144 42.673 110.032 42.945 109.872C43.217 109.696 43.441 109.504 43.633 109.288Z" fill="#2E2E2E"/>
</svg>
