<svg width="168" height="100" viewBox="0 0 168 100" fill="none" xmlns="http://www.w3.org/2000/svg">
<path d="M115.775 35.304C115.714 35.5449 115.823 35.6803 116.101 35.7102L137.096 37.9679C137.375 37.9978 137.529 37.873 137.559 37.5935L138.179 31.8279C138.205 31.5833 138.079 31.4461 137.801 31.4161L117.119 29.1921C116.875 29.1659 116.738 29.2926 116.708 29.5721C116.413 31.6612 116.102 33.5718 115.775 35.304ZM139.157 21.1003C139.184 20.8557 139.057 20.7184 138.779 20.6884L118.472 16.6128C118.228 16.5865 118.093 16.6957 118.067 16.9403L117.447 22.7059C117.417 22.9854 117.523 23.1383 117.767 23.1645L138.449 25.3885C138.727 25.4184 138.882 25.2936 138.912 25.0141L139.157 21.1003ZM144.924 15.1403C153.824 11.811 150.249 18.5705 150.249 18.5705C150.249 18.5705 157.59 16.5023 154.168 21.8493C150.745 27.1963 147.468 53.2927 147.468 53.2927C147.258 55.2495 146.837 56.7064 146.206 57.6636C145.609 58.6245 144.674 59.3016 143.399 59.6947C141.826 60.2325 134.131 59.8115 129.767 59.4483C129.732 59.4445 129.698 59.4408 129.663 59.4371C128.827 59.3472 128.089 59.0028 127.449 58.4037C126.813 57.7698 126.368 56.9973 126.114 56.0863C126.043 55.7606 125.938 55.4311 125.797 55.0979C125.723 54.8071 125.699 54.5394 125.725 54.2948C125.763 53.9454 125.905 53.6072 126.151 53.2802C126.56 52.7586 127.095 52.5334 127.756 52.6045C127.791 52.6082 127.808 52.6101 127.808 52.6101C129.511 52.8285 131.615 53.0725 134.122 53.3421C134.784 53.4132 135.247 53.357 135.514 53.1736C135.784 52.9552 135.951 52.549 136.015 51.955L136.804 44.617C136.834 44.3374 136.709 44.1827 136.431 44.1527L114.392 41.7828C114.113 41.7528 113.926 41.8564 113.83 42.0935C111.871 47.5383 109.158 51.8063 105.691 54.8975C105.074 55.3967 104.399 55.607 103.668 55.5283C103.599 55.5208 103.529 55.5134 103.459 55.5059C102.666 55.3499 101.971 54.9393 101.373 54.2741C101.342 54.2354 101.295 54.1774 101.233 54.1C101.171 54.0227 101.091 53.9434 100.995 53.8623C100.432 53.2009 100.197 52.4334 100.291 51.5598C100.366 50.861 100.678 50.2582 101.225 49.7515C102.317 48.7731 103.294 47.7118 104.156 46.5674C105.635 44.6056 106.781 42.4666 107.594 40.1504C108.406 37.8342 109.001 35.742 109.378 33.8738C109.759 31.9707 110.082 29.7787 110.349 27.2977L111.916 12.7266C112.006 11.888 112.379 11.2035 113.035 10.6731C113.729 10.1115 114.494 9.87564 115.33 9.9655C115.33 9.9655 136.024 18.4695 144.924 15.1403Z" fill="#FEF2F4"/>
<path d="M104.197 84.3654C104.173 84.5358 104.258 84.621 104.452 84.621H119.078C119.272 84.621 119.369 84.5237 119.369 84.3289V80.3121C119.369 80.1417 119.272 80.0565 119.078 80.0565H104.67C104.5 80.0565 104.415 80.1539 104.415 80.3487C104.367 81.8093 104.294 83.1482 104.197 84.3654ZM119.249 72.8513C119.249 72.6809 119.152 72.5957 118.958 72.5957L104.67 71.2927C104.5 71.2927 104.415 71.3779 104.415 71.5483V75.5651C104.415 75.7598 104.5 75.8572 104.67 75.8572H119.078C119.272 75.8572 119.369 75.7598 119.369 75.5651L119.249 72.8513ZM122.779 68.3195C128.662 65.3675 126.701 70.2875 126.701 70.2875C126.701 70.2875 131.603 68.3195 129.642 72.2555C127.681 76.1916 127.357 94.4073 127.357 94.4073C127.357 95.7706 127.175 96.8052 126.811 97.5112C126.472 98.2172 125.877 98.7528 125.028 99.1179C123.985 99.6048 118.654 99.8848 115.622 99.9578C115.598 99.9578 115.573 99.9578 115.549 99.9578C114.967 99.9578 114.433 99.7752 113.948 99.41C113.463 99.0205 113.099 98.5215 112.857 97.9129C112.784 97.6938 112.687 97.4747 112.565 97.2556C112.493 97.0608 112.456 96.8783 112.456 96.7079C112.456 96.4644 112.529 96.221 112.675 95.9775C112.917 95.588 113.269 95.3933 113.73 95.3933C113.754 95.3933 113.766 95.3933 113.766 95.3933C114.955 95.4176 116.422 95.4298 118.169 95.4298C118.63 95.4298 118.945 95.3568 119.115 95.2107C119.285 95.0403 119.369 94.7482 119.369 94.3343V89.2221C119.369 89.0273 119.272 88.9299 119.078 88.9299H103.724C103.53 88.9299 103.409 89.0151 103.36 89.1856C102.414 93.0806 100.862 96.221 98.7028 98.6067C98.3147 98.9962 97.8659 99.191 97.3565 99.191C97.308 99.191 97.2595 99.191 97.211 99.191C96.6531 99.1423 96.1437 98.911 95.6828 98.4971C95.6586 98.4728 95.6222 98.4363 95.5737 98.3876C95.5252 98.3389 95.4645 98.2902 95.3917 98.2415C94.9551 97.8277 94.7368 97.3165 94.7368 96.7079C94.7368 96.221 94.9066 95.7828 95.2462 95.3933C95.9254 94.6386 96.5197 93.8353 97.0291 92.9832C97.9023 91.5226 98.533 89.9646 98.9211 88.3092C99.3092 86.6538 99.5639 85.1688 99.6852 83.8542C99.8065 82.5153 99.8671 80.9816 99.8671 79.2532V69.1017C99.8671 68.5175 100.073 68.0184 100.486 67.6046C100.922 67.1664 101.432 66.9473 102.014 66.9473C102.014 66.9473 116.896 71.2715 122.779 68.3195Z" fill="#FEF2F4"/>
<path d="M141.453 91.0745C141.453 90.9148 141.376 90.835 141.222 90.835H137.865C137.689 90.835 137.602 90.9148 137.602 91.0745V94.5988C137.602 94.7813 137.689 94.8725 137.865 94.8725H141.222C141.376 94.8725 141.453 94.7813 141.453 94.5988V91.0745ZM143.033 87.5502C143.559 87.5502 144.009 87.7441 144.382 88.1319C144.777 88.5197 144.975 88.9987 144.975 89.569V96.1043C144.975 96.6518 144.777 97.1194 144.382 97.5072C144.009 97.9178 143.559 98.1231 143.033 98.1231H137.766C137.656 98.1231 137.602 98.1687 137.602 98.26C137.602 98.6021 137.492 98.8873 137.272 99.1154C137.053 99.3663 136.779 99.4918 136.45 99.4918H135.89C135.407 99.4918 134.99 99.3093 134.639 98.9443C134.31 98.6021 134.145 98.1801 134.145 97.6783V89.569C134.145 88.9987 134.332 88.5197 134.705 88.1319C135.078 87.7441 135.539 87.5502 136.087 87.5502H143.033ZM135.758 85.8052C135.341 85.8052 134.979 85.6569 134.672 85.3604C134.387 85.0638 134.244 84.6988 134.244 84.2654C134.244 83.832 134.387 83.467 134.672 83.1705C134.979 82.8512 135.341 82.6915 135.758 82.6915H143.559C143.976 82.6915 144.327 82.8512 144.613 83.1705C144.92 83.467 145.073 83.832 145.073 84.2654C145.073 84.6988 144.92 85.0638 144.613 85.3604C144.327 85.6569 143.976 85.8052 143.559 85.8052H135.758ZM135.791 81.0833C135.352 81.0833 134.979 80.935 134.672 80.6385C134.387 80.3191 134.244 79.9427 134.244 79.5093C134.244 79.0531 134.387 78.6767 134.672 78.3802C134.979 78.0609 135.352 77.9012 135.791 77.9012H143.526C143.943 77.9012 144.305 78.0609 144.613 78.3802C144.92 78.6767 145.073 79.0531 145.073 79.5093C145.073 79.9427 144.92 80.3191 144.613 80.6385C144.305 80.935 143.943 81.0833 143.526 81.0833H135.791ZM134.211 76.3272C133.772 76.3272 133.399 76.1675 133.092 75.8482C132.785 75.5288 132.631 75.141 132.631 74.6848C132.631 74.2286 132.785 73.8408 133.092 73.5215C133.399 73.2021 133.772 73.0424 134.211 73.0424H144.81C145.249 73.0424 145.622 73.2021 145.929 73.5215C146.258 73.8408 146.423 74.2286 146.423 74.6848C146.423 75.141 146.258 75.5288 145.929 75.8482C145.622 76.1675 145.249 76.3272 144.81 76.3272H134.211ZM153.73 95.7279H163.071C163.656 95.6592 162.932 94.8017 163.267 92.9567C163.598 91.135 166.128 90.532 167.232 91.8309C167.831 92.5354 168 93.4461 168 94.4858C168 94.577 168 94.4505 168 94.5646C167.693 96.6631 167.547 97.1423 166.801 97.9178C166.077 98.7162 164.277 99.6628 162.588 99.6628H153.302C151.174 99.6628 149.726 99.275 148.958 98.4995C148.189 97.7239 147.805 96.2297 147.805 94.0171V82.3151C147.805 81.7448 147.992 81.2658 148.365 80.878C148.738 80.4902 149.199 80.2963 149.747 80.2963H158.207C158.36 80.2963 158.437 80.2051 158.437 80.0226V73.2135C158.437 73.0538 158.36 72.974 158.207 72.974H149.616C149.089 72.974 148.639 72.7801 148.266 72.3923C147.915 72.0045 147.74 71.5369 147.74 70.9894C147.74 70.442 147.915 69.9743 148.266 69.5866C148.639 69.1988 149.089 69.0049 149.616 69.0049H163.802C164.329 69.0049 164.779 69.1988 165.152 69.5866C165.547 69.9743 165.745 70.4534 165.745 71.0237C165.745 71.0237 166.381 82.9318 164.789 83.9102C163.197 84.8886 161.711 84.2312 161.564 84.2312H152.117C151.942 84.2312 151.854 84.3225 151.854 84.505V94.0171C151.854 94.747 151.964 95.2147 152.183 95.42C152.425 95.6253 152.94 95.7279 153.73 95.7279Z" fill="#FEF2F4"/>
<path d="M137.013 68.4771C134.945 69.0268 135.661 73.1198 136.278 75.0976L139.373 74.5072C139.78 68.796 137.969 68.1075 137.013 68.4771Z" fill="#FEF2F4"/>
<path d="M142.409 68.4426C140.292 68.7518 140.535 72.8999 140.921 74.9353L144.063 74.7034C145.122 69.0764 143.402 68.1849 142.409 68.4426Z" fill="#FEF2F4"/>
<path d="M66.264 95.1661C-24.8007 118.081 -20.7391 -21.9624 70.6484 2.99114C72.863 3.59583 73.9703 3.89817 74.3846 4.48727C74.7344 4.98467 74.8385 5.58734 74.6757 6.17323C74.4829 6.86716 73.4856 7.56195 71.491 8.95154C51.5154 22.8681 34.3996 50.3963 67.8975 89.936C69.033 91.2764 69.6008 91.9465 69.6548 92.583C69.6996 93.1116 69.528 93.6459 69.1838 94.0496C68.7694 94.5357 67.9343 94.7458 66.264 95.1661Z" fill="#F8A9BB"/>
<path d="M85.8864 87.3606C85.8079 89.8775 83.7619 91.856 81.5246 91.7862C79.2873 91.7165 77.5373 89.6195 77.6158 87.1026C77.6943 84.5857 79.5716 82.6019 81.8088 82.6717C84.0461 82.7414 85.9649 84.8436 85.8864 87.3606Z" fill="#FEF2F4"/>
<path d="M85.3852 87.176C85.3154 89.4132 83.4452 91.1703 81.2079 91.1006C78.9707 91.0308 77.2135 89.1606 77.2833 86.9233C77.3531 84.6861 79.2233 82.9289 81.4606 82.9987C83.6978 83.0685 85.4549 84.9387 85.3852 87.176Z" fill="#FEF2F4"/>
<path d="M61.653 25.6331C60.0312 26.4685 57.2332 46.9069 57.3557 49.6593C52.2417 53.2844 51.7696 56.919 49.0279 62.0711C46.2862 67.2231 53.6026 72.1819 57.1456 74.1509C54.1878 77.9784 48.4633 83.1725 47.4253 87.8708C46.3873 92.5692 50.7551 98.7877 56.4244 97.2749C62.0938 95.7622 65.7193 96.889 67.7799 97.629C83.1948 101.759 84.3875 90.6003 82.5112 85.7548C79.2663 77.375 76.6715 76.7872 73.9778 74.6758C86.877 68.4551 83.5166 53.5163 76.8131 50.2661C78.5893 45.3205 78.9793 38.9012 79.06 36.3131C79.5027 30.7852 78.4051 24.8039 75.4936 26.0647C72.5821 27.3255 68.0179 41.5442 66.9177 47.9301C66.6482 40.3188 66.3127 33.325 65.72 30.6596C64.6229 25.7257 63.2748 24.7976 61.653 25.6331Z" fill="#FEF2F4"/>
<path d="M59.2037 57.9418C58.0169 58.0737 55.9048 60.8166 58.2806 62.6478C59.3654 62.1748 60.3904 57.8099 59.2037 57.9418Z" fill="#FEF2F4"/>
<path d="M71.1532 58.4231C72.5143 57.4615 73.9033 61.2064 71.6269 63.1599C70.5188 62.7445 69.7922 59.3846 71.1532 58.4231Z" fill="#FEF2F4"/>
<path d="M74.0307 80.9277C70.8739 80.0733 70.4906 88.1125 71.0743 92.7588C73.1388 95.4719 76.6914 95.3282 77.4331 92.9571C78.9344 88.1575 76.1497 81.5013 74.0307 80.9277Z" fill="#FEF2F4"/>
<path d="M73.0199 80.5166C70.0206 79.7048 70.472 87.9911 71.0726 92.2358C73.0562 94.7321 75.1592 94.1583 75.9628 93.5593C78.7756 83.6839 75.1729 80.7494 73.0199 80.5166Z" fill="#FEF2F4"/>
<path d="M51.6143 80.972C54.3817 79.2293 56.0685 87.0444 56.5661 91.1697C55.2407 94.1349 53.0059 94.2995 52.0541 94.0111C46.7185 85.8054 49.5377 81.8993 51.6143 80.972Z" fill="#FEF2F4"/>
<path d="M49.7479 79.0822C53.0195 78.1039 55.234 86.3484 55.9048 90.5825C54.7406 93.5508 52.5618 93.6191 51.6179 93.2822C46.0323 84.6661 47.758 79.9363 49.7479 79.0822Z" fill="#FEF2F4"/>
</svg>
